<svg viewBox="0 0 176 33" xmlns="http://www.w3.org/2000/svg">
	<g fill="none" fill-rule="evenodd">
		<path fill="#8EB50D" d="M135.494 24.754v-3.183h3.396v3.183h-3.396zm3.3-5.462h-3.19L135.5 8h3.395l-.102 11.292zM126.407 10.53c-3.553 0-6.444 2.623-6.444 6.185v8.04h3.642v-7.91c0-1.549 1.257-2.821 2.802-2.821 1.545 0 2.802 1.272 2.802 2.82v7.91h3.642v-8.04c0-3.56-2.89-6.184-6.444-6.184M110.528 21.764a3.922 3.922 0 0 1 0-7.845 3.922 3.922 0 0 1 0 7.845m0-11.234c-4.023 0-7.296 3.28-7.296 7.311 0 4.032 3.273 7.312 7.296 7.312 4.022 0 7.295-3.28 7.295-7.312 0-4.031-3.273-7.311-7.295-7.311"/>
		<path fill="#F9F9F9" d="M94.3 13.589c1.008 0 1.904.338 2.59.977a4.03 4.03 0 0 1 1.146 1.993h-7.492a3.808 3.808 0 0 1 3.755-2.97m6.924 3.284c-.163-1.85-.926-3.442-2.231-4.606-1.256-1.12-2.922-1.737-4.691-1.737a6.858 6.858 0 0 0-4.973 2.101c-1.332 1.376-2.065 3.26-2.065 5.303 0 2.135.767 3.968 2.218 5.3 1.35 1.237 3.176 1.92 5.142 1.92 2.444 0 4.44-.841 5.932-2.499l-2.372-2.105c-.873.957-2.057 1.442-3.521 1.442a4.687 4.687 0 0 1-2.55-.742c-.763-.501-1.294-1.2-1.538-2.02l-.028-.094 10.64-.008s.149-.985.037-2.255M79.53 10.622c-1.476 0-2.818.58-3.811 1.523a5.517 5.517 0 0 0-3.813-1.523 5.548 5.548 0 0 0-5.542 5.555v8.577h3.46v-8.577c0-1.153.933-2.087 2.082-2.087 1.15 0 2.082.934 2.082 2.087v8.577h3.46v-8.577c0-1.153.933-2.087 2.083-2.087 1.15 0 2.082.934 2.082 2.087v8.577h3.46v-8.577a5.548 5.548 0 0 0-5.542-5.555M56.85 21.764a3.895 3.895 0 0 1-2.73-1.115 3.914 3.914 0 0 1-1.183-2.808c0-1.08.438-2.06 1.146-2.77a3.898 3.898 0 0 1 2.767-1.152 3.922 3.922 0 0 1 0 7.845m0-11.234a7.282 7.282 0 0 0-5.77 2.841 7.283 7.283 0 0 0-1.526 4.47 7.283 7.283 0 0 0 1.521 4.463 7.282 7.282 0 0 0 5.775 2.85c4.023 0 7.296-3.28 7.296-7.313 0-4.031-3.273-7.311-7.296-7.311M43.296 13.92c1.404 0 2.638.745 3.328 1.86l1.91-3.022a7.266 7.266 0 0 0-5.238-2.228C39.273 10.53 36 13.81 36 17.84c0 4.032 3.273 7.312 7.296 7.312 2.02 0 3.851-.827 5.174-2.161l-1.9-3.006a3.911 3.911 0 0 1-3.274 1.778 3.922 3.922 0 0 1 0-7.845"/>
		<path d="M0 0h176v33H0z"/>
	</g>
</svg>
